<?xml version="1.0" encoding="utf-8"?>
<!-- Generator: Adobe Illustrator 24.2.3, SVG Export Plug-In . SVG Version: 6.00 Build 0)  -->
<svg version="1.1" id="Lag_1" xmlns="http://www.w3.org/2000/svg" xmlns:xlink="http://www.w3.org/1999/xlink" x="0px" y="0px"
	 viewBox="0 0 595.28 841.89" style="enable-background:new 0 0 595.28 841.89;" xml:space="preserve">
<style type="text/css">
	.st0{fill:#2E2551;}
</style>
<path class="st0" d="M201.57,453.32c-18.41,9.26-39.16,13.81-59.75,13.11c-3.66-0.12-7.37-0.42-10.82-1.63
	c-1.75-0.61-3.61-1.69-3.98-3.51c24.21,8.06,51.21,0.78,73.25-12.08c-2.35,2.47-5.16,4.5-8.25,5.94
	C195.2,454.54,198.39,453.93,201.57,453.32z"/>
<path class="st0" d="M258.75,341.61c-2.23,0.33-4.3,1.57-5.65,3.37c-0.7,0.58-1.79-0.42-1.62-1.32c0.17-0.89,1.01-1.47,1.8-1.92
	c4.33-2.46,9.52-3.98,14.3-2.62c0.87,0.25,2.24,0.25,2.23-0.66c-0.55-0.4-1.09-0.8-1.64-1.21c1.61-0.47,3.18,0.94,3.98,2.42
	s1.31,3.21,2.64,4.24c0.51,0.4-0.17,1.27-0.81,1.16s-1.07-0.68-1.54-1.12c-0.47-0.44-1.25-0.76-1.73-0.33
	c-0.46,0.41-1.17,0.35-1.77,0.2s-1.24-0.35-1.82-0.14s-0.92,1.09-0.42,1.46c1.37-0.16,2.79,0.58,3.45,1.78
	c-4.7-1.01-9.57-1.21-14.33-0.59c-1.08,0.14-2.64-0.1-2.56-1.18c0.97-0.16,1.93-0.32,2.9-0.48c0.83-0.14,1.72-0.3,2.35-0.86
	C259.14,343.29,259.37,342.19,258.75,341.61 M269.43,340.57c-0.16,0.23-0.32,0.46-0.47,0.69c0.35,0.49,0.86,0.86,1.43,1.05
	c0.32-0.24,0.54-0.61,0.6-1.01c-0.28-0.46-0.87-0.71-1.39-0.6L269.43,340.57z"/>
<path class="st0" d="M288.92,343.52c1.08-1.87,2.16-3.75,3.24-5.62c0.32-0.56,0.67-1.15,1.24-1.46c0.57-0.31,1.42-0.2,1.69,0.39
	c-1.11,1.25-2.03,2.67-2.72,4.2c4.91-1.98,10.47-2.28,15.56-0.85c1.63,0.46,3.43,1.33,3.77,2.99c-1.91-0.06-3.8-0.73-5.34-1.87
	c-0.74-0.55-1.82,0.55-1.53,1.43c0.29,0.88,1.3,1.3,2.22,1.39c0.92,0.09,1.88-0.03,2.76,0.27c0.52,0.26-0.23,0.94-0.81,0.99
	c-5.09,0.4-10.18,0.8-15.27,1.2c-0.28-0.3-0.28-0.82,0.02-1.11c1.26-0.02,2.5-0.48,3.46-1.29c-0.35-1.14-1.92-1.26-3.08-1.01
	c-2.01,0.44-3.91,1.33-5.53,2.6C288.13,345.12,288.52,344.22,288.92,343.52z"/>
<path class="st0" d="M264.39,384.25c-2.34-0.8-4.28-2.7-5.13-5.02c-0.85-2.32-0.6-5.02,0.66-7.15c0.43-0.73,1.39-1.45,2.03-0.89
	c-0.52,1.48-1.04,2.95-1.56,4.43c-0.13,0.36-0.26,0.76-0.13,1.13c0.11,0.32,0.4,0.55,0.68,0.75c2.45,1.68,5.62,2.28,8.52,1.61
	c3.73-0.87,7.61-0.77,11.45-0.67c3.57,0.1,7.14,0.19,10.71,0.29c0.3,0.01,0.64,0.03,0.85,0.25c0.21,0.22,0.1,0.7-0.2,0.68
	c-5.6-0.32-11.17,0.76-16.71,1.63c-3.08,0.48-6.37,0.87-9.18-0.47c-0.21,2.39,1.38,4.83,3.65,5.6c6.82,2.32,14.29,2.68,21.3,1.02
	c0.69,0.43-0.3,1.37-1.1,1.53c-6.49,1.22-13.17,1.39-19.71,0.49c-0.75-0.1-1.52-0.23-2.16-0.63
	C266.61,387.73,266.33,384.91,264.39,384.25z"/>
<path class="st0" d="M285.82,342.03c-0.23,2.33-0.46,4.65-0.69,6.98c-1.15-2.34-1.47-5.04-1.1-7.62c0.66-4.65,3.62-8.93,7.74-11.19
	s9.31-2.46,13.59-0.52c0.79,0.36,1.59,0.82,2.03,1.58c0.43,0.76,0.35,1.87-0.38,2.33c-1.76,1.12-3.46-2.43-5.51-2.09
	c-1.14,0.19-2.28,0.38-3.42,0.57c-0.53,0.09-1.13,0.21-1.43,0.66c-0.3,0.45,0.04,1.26,0.56,1.12c-2,0.56-4.11,0.77-6.18,0.62
	c-1.7-0.13-3.27,1.11-4.06,2.62S285.98,340.34,285.82,342.03z"/>
<path class="st0" d="M384.27,393.07c1.05,0.98-0.68,2.81-0.08,4.11c0.47,1.01,1.91,0.95,3,0.73c1.95-0.4,3.89-0.8,5.84-1.19
	c1.23-0.25,2.51-0.53,3.47-1.34c0.96-0.81,2.29-1,3.54-1.09c5.74-0.39,11.58,0.66,16.82,3.03c-1.47,1.24-3.84,1.21-5.28-0.05
	c-1.46-1.28-3.67-1.03-5.59-0.71c-5.97,1-11.93,1.99-17.9,2.99c-0.04,1.74,0.55,3.49,1.62,4.86c-0.36,0.46-1.09,0.17-1.58-0.16
	c-1.97-1.32-4.02-2.73-5.11-4.84C381.94,397.29,382.23,394.27,384.27,393.07z"/>
<path class="st0" d="M254.44,334.54c-1.06,0.09-2.21,0.24-3.12-0.3c3.47-2.5,7.18-5.1,11.45-5.39c3.26-0.22,6.59,1.04,8.89,3.35
	c0.39,0.39,0.78,0.86,0.82,1.41c0.05,0.55-0.41,1.17-0.96,1.09c-3.45-0.52-6.95-0.45-10.44-0.38c-1.13,0.02-2.26,0.05-3.39,0.07
	C256.62,334.42,255.53,334.44,254.44,334.54 M266.37,332.22c0.18,0.24,0.57-0.17,0.41-0.42c-0.16-0.26-0.51-0.29-0.81-0.3
	c-0.35,0.2,0.01,0.87,0.37,0.69L266.37,332.22z"/>
<path class="st0" d="M80.84,436.61c0.06-0.93,0.98-1.54,1.81-1.98c10.37-5.61,20.87-10.99,31.47-16.15
	c1.15-0.56,2.79-0.99,3.48,0.08c-2.2,2.38-6.14,2.37-8.39,4.7c-4.02,4.16-9.63,6.32-15.06,8.35
	C89.72,433.28,85.28,434.95,80.84,436.61z"/>
<path class="st0" d="M413.41,362.9c-0.39,0.19-0.86,0.37-1.23,0.15c-0.31-0.18-0.41-0.57-0.46-0.92c-0.23-1.53-0.01-3.12,0.63-4.52
	c0.23-0.5,0.53-0.99,1.02-1.23c0.49-0.24,1.19-0.1,1.39,0.41c-1.16,1.21-1.78,2.91-1.69,4.58c6.11-3.81,14.45-3.67,20.42,0.36
	c-0.31,0.99-1.67,1.26-2.63,0.87c-0.96-0.39-1.67-1.22-2.48-1.86c-0.81-0.65-1.92-1.15-2.87-0.74c0.01,1.28-0.36,2.55-1.04,3.63
	c1.06-0.03,2.11,0.67,2.48,1.67c-3.07,0.2-6.13,0.39-9.2,0.59c-0.61,0.04-1.28,0.06-1.77-0.29c-0.5-0.36-0.61-1.25-0.06-1.53
	c0.69,0.22,1.44,0.43,2.11,0.17c0.67-0.26,1.08-1.23,0.56-1.73c-0.49-0.45-0.71-1.16-0.58-1.81
	C416.46,361.44,414.94,362.17,413.41,362.9z"/>
<path class="st0" d="M434.46,351.68c-2.28,0.02-4.56,0.05-6.84,0.07c-5.47,0.06-11,0.12-16.31,1.45c-1.05,0.26-1.88-1.18-1.47-2.18
	c0.4-1.01,1.48-1.56,2.49-1.95C419.53,346.29,428.09,347.3,434.46,351.68z"/>
<path class="st0" d="M387.82,350.83c-0.19,0.51-0.38,1.01-0.57,1.52c-0.52-0.35-0.96-0.81-1.29-1.34c-0.11,0.84-1.3,0.99-2.09,0.7
	c-0.79-0.29-1.61-0.82-2.42-0.56c-2.43,0.79-4.94,1.33-7.48,1.62c-0.43-0.49,0.17-1.21,0.71-1.57c4.53-2.95,10.19-4.58,15.42-3.18
	c5.22,1.4,9.62,6.37,9.25,11.76c-0.83,0.22-1.26-0.93-1.43-1.77c-0.46-2.35-1.83-4.51-3.76-5.92
	C391.99,352.44,389.69,351.99,387.82,350.83z"/>
<path class="st0" d="M273.44,367.23c2.56-0.48,5.34,0.6,6.9,2.68c0.94,1.25,2.97,0.52,4.1-0.57c1.13-1.08,2.26-2.53,3.83-2.46
	c0.68,0.03,0.8-0.97,0.6-1.63c-0.2-0.65-0.35-1.57,0.29-1.82c0.97,0.84,1.75,1.89,2.3,3.05c0.25,0.53,0.45,1.13,0.31,1.69
	c-0.14,0.57-0.74,1.05-1.3,0.88c-1.05-0.34-2.02,0.59-2.88,1.29c-1.37,1.12-3.09,1.8-4.85,1.92c-0.99,0.07-2.15,0.04-2.75,0.83
	c-0.7,0.93-2.22,0.31-2.96-0.58c-0.74-0.89-1.33-2.08-2.46-2.35c-1.88-0.45-3.36-2.25-3.43-4.18c-0.07-1.94,1.26-3.84,3.11-4.43
	C273.63,363.36,273.35,365.3,273.44,367.23 M277.11,371.06c0.24,0.57,1.04,0.8,1.55,0.46c0.16-0.86-1.38-1.29-1.69-0.47
	L277.11,371.06z"/>
<path class="st0" d="M379.84,365.74c-0.46,0.03-0.94,0.05-1.34-0.18c-0.39-0.23-0.59-0.83-0.27-1.16c0.83-0.13,1.66-0.25,2.49-0.38
	c0.2-1.66-1.63-3.08-3.28-2.83c-1.65,0.25-2.9,1.77-3.28,3.39c-0.75,0.44-1.74-0.41-1.73-1.28c0.01-0.87,0.67-1.6,1.36-2.12
	c3.61-2.74,8.66-2.16,13.13-1.45c2.52,0.4,5.32,0.97,6.77,3.06c-1.8-0.23-3.53-0.99-4.92-2.17c-0.65,1-0.94,2.22-0.83,3.4
	c0.65,0.13,1.24,0.51,1.61,1.06C386.31,365.31,383.07,365.53,379.84,365.74 M382.49,363.11c0.12,0.42,0.86,0.05,0.75-0.37
	c-0.1-0.42-0.6-0.6-1.02-0.68c-0.28,0.31-0.16,0.88,0.22,1.06L382.49,363.11z"/>
<path class="st0" d="M406.7,415.81c-1.92,1.02-4.32,0.7-6.26-0.28c-1.94-0.98-3.5-2.55-5.03-4.09c-0.18-0.18-0.36-0.37-0.41-0.61
	c-0.06-0.29,0.11-0.6,0.38-0.71c2.42,1.7,5.53,2.07,8.49,2c2.96-0.07,5.92-0.52,8.86-0.25c-1.46,1.88-3.96,2.88-6.31,2.53
	C406.29,414.88,406.39,415.42,406.7,415.81z"/>
<path class="st0" d="M398.77,378.78c0.35,0.23,0.36,0.83,0.02,1.08c-1.42,0.53-2.85,1.06-4.27,1.59c-0.26,0.1-0.56,0.24-0.61,0.52
	c-0.04,0.22,0.11,0.43,0.27,0.59c1.18,1.23,3.01,1.49,4.67,1.9c1.65,0.41,3.47,1.27,3.87,2.93c-2.65,0.13-5.33-0.3-7.81-1.25
	c-1.04-0.4-2.11-0.94-2.7-1.88c-0.98-1.56-0.25-3.79,1.26-4.84S396.99,378.29,398.77,378.78z"/>
<path class="st0" d="M391.05,404.46c1.01-0.43,2.16,0.02,3.19,0.4c6.49,2.41,13.95,2.1,20.22-0.83c0.76-0.35,1.68-0.74,2.37-0.27
	c-2.43,2.67-6.26,3.43-9.82,4.04c-0.97,0.17-1.95,0.33-2.92,0.5C399.47,409.1,394.51,407.64,391.05,404.46z"/>
<path class="st0" d="M395.06,293.42c-0.91,0.76-2.32,1.62-1.84,2.71c-4.16,2.74-8.09,5.83-11.74,9.23c-2.08,1.94-4.13,4.06-5.1,6.74
	c-0.76-0.43-0.95-1.5-0.66-2.32c0.29-0.82,0.94-1.46,1.57-2.07c6.23-5.98,12.66-11.75,19.28-17.3
	C396.51,291.56,395.95,292.68,395.06,293.42z"/>
<path class="st0" d="M297.39,388.03c0.01-1.85,0.81-3.68,2.15-4.96c0.41-0.39,0.91-0.87,0.74-1.41c-0.4-1.29,0.14-2.72,1.05-3.72
	c0.91-1,2.13-1.65,3.32-2.28c1.32,1.4,0.25,3.67-0.92,5.19C301.8,383.4,299.68,385.8,297.39,388.03z"/>
<path class="st0" d="M216.13,474.71l-6.74-22.06c-3.61-11.8-10.02-22.72-18.57-31.62c4.56,0.56,9.13,1.12,13.69,1.67
	c-6.1-2.06-12.2-4.11-18.31-6.17c-0.94-0.32-1.93-0.66-2.59-1.4c-0.75-0.84-0.95-2.02-1.08-3.14c-0.68-6.14,0-12.43,1.97-18.28
	c1.37-4.04,3.34-7.88,4.43-12.01c1.48-5.62,1.25-11.53,1.01-17.34c-0.33-8.12-0.67-16.24-1-24.36c1.5,0.62,2.82,1.64,3.82,2.92
	c0.41-7.81-1.54-15.73-5.53-22.46c-0.44,1.58-0.88,3.16-1.32,4.74c0.88-6.32,0.38-12.82-1.45-18.93c-0.41-1.36-0.89-2.73-1.77-3.85
	c-9.56-12.27-23.43-21.11-38.59-24.58c1.38-0.38,2.76-0.75,4.14-1.13c-4.24-1.03-8.94,0.03-12.33,2.78
	c5.04-1.2,10.6,0.07,14.62,3.33c-13.03-4.07-27.26-0.38-39.63,5.38c-4.05,1.89-8.12,4.1-10.9,7.6c-2.78,3.5-3.99,8.59-1.85,12.52
	c0.83-3.83,1.67-7.67,2.5-11.5c0.35,1.86,0.71,3.73,1.06,5.59c-0.58-5.38,5.33-9.74,10.58-12c7.64-3.28,15.64-5.72,23.81-7.28
	c1.87-0.36,3.83-0.66,5.67-0.16c3.15,0.85,5.28,3.94,5.97,7.13c0.69,3.19,0.19,6.5-0.31,9.72c-8.29-1.23-17.06,1.37-23.35,6.91
	c7.1-4.24,15.58-6.13,23.81-5.33l1.34,4.97c-4.31,1.54-8.62,3.08-12.93,4.62c-13.32,4.76-27.47,10.13-35.71,21.63
	c-3.04,4.25,2.9,11.39-0.91,14.98c-1.82-13.31-1.59-26.9,0.67-40.14c-1.26,2.09-2.52,4.19-3.79,6.28c0.33-3.92-0.11-7.9-1.27-11.65
	c-1.14,16.03-0.04,32.23,3.29,47.96c-2.02-0.13-3.77,1.61-4.35,3.54c-0.58,1.94-0.27,4.01,0.05,6.01
	c1.25,7.86,2.81,16.33,8.61,21.76c1.04,0.97,1.79,2.2,2.53,3.41c3.11,5.1,6.23,10.2,9.34,15.29c-1.51-0.2-3.09,0.26-4.26,1.23
	c4.15-0.9,7.24,3.9,8.01,8.07c1,5.46,0.34,11.22-1.86,16.31c-0.59-0.56-1.18-1.13-1.78-1.69c0.31,7.46,0.61,14.92,0.92,22.37
	c0.32,7.69,0.61,15.58-1.84,22.87c-1.08,3.23-2.68,6.27-4.27,9.29c-0.66,1.25-1.32,2.5-1.97,3.74c0.06,0.08,0.12,0.16,0.17,0.24
	c0.86-0.4,1.72-0.8,2.59-1.18c0.06-0.05,0.11-0.1,0.17-0.15c0.4-0.33,0.8-0.65,1.21-0.95c5.74-15.31,7.56-32.1,4.98-48.25
	c2.3-0.65,3.54,2.62,3.61,5c0.27,8.75-0.08,17.84,3.43,25.86c-0.75-11.63-1.5-23.27-2.24-34.9c11.61,7.24,24.75,12.03,38.3,13.96
	c-2.54-1.28-5.08-2.56-7.62-3.84c13.06,0.37,26.18-5.22,34.96-14.9c5.7,10.03,11.4,20.06,17.1,30.09c1.41-1.38,0.48-3.75-0.53-5.45
	c-5.78-9.78-11.57-19.56-17.35-29.34c9.94,10.23,17.44,22.81,21.74,36.41C210.39,461.66,211.85,468.96,216.13,474.71z
	 M147.18,309.17c1.69,0.26,4.15-0.25,3.95-1.95c-0.86-7.29-1.72-14.58-2.58-21.87c-0.04-0.35-0.07-0.75,0.18-1.01
	c0.19-0.2,0.49-0.23,0.77-0.26c6.23-0.49,12.63,1.6,17.36,5.68c-3.01-0.88-6.01-1.77-9.01-2.65c-2.26-0.66-4.72-1.32-6.9-0.44
	c3.74,1.09,7.49,2.18,11.23,3.28c2.5,0.73,5.04,1.48,7.22,2.91c1.47,0.96,2.72,2.2,3.97,3.44c2.01,1.99,4.04,4,5.7,6.29
	c4.06,5.62,5.68,12.94,4.39,19.75c-2.49-3.61-5.9-6.58-9.82-8.54c-2.57-1.29-5.34-2.14-8.14-2.77c-7.38-1.65-15.11-1.72-22.52-0.21
	C143.07,309.11,145.49,308.91,147.18,309.17z M174.61,316.5c-5.44-1.19-10.87-2.39-16.31-3.58c-0.73-0.16-1.67-0.63-1.46-1.35
	C163.06,311.6,169.26,313.33,174.61,316.5z M132.21,314.66c7.51-2.28,15.59-2.98,23.25-1.27c0.54,0.12,1.2,0.72,0.76,1.06
	c-2.28,0.2-4.57,0.4-6.85,0.6c-3.22,0.28-6.44,0.56-9.63,1.05c-9.65,1.46-19.01,4.78-27.42,9.72c-0.44,0.1-0.93-0.18-1.06-0.61
	C117.73,320.75,124.7,316.94,132.21,314.66z M102.85,333.06c9.86-8.81,23.37-12.07,36.32-14.78c7.45-1.56,15.03-3.05,22.62-2.4
	s15.28,3.7,19.93,9.72c0.89,1.16,0.68,3.71-0.65,3.1c1.19,1.94,3.52,3.11,5.79,2.92c-1.5-0.91-2.12-3.02-1.36-4.6
	c2.2,2.9,3.7,6.32,4.34,9.91c-19.24-13.68-47.35-13.28-66.18,0.96c-2.37,1.79-5.72,1.77-8.49,0.7s-5.09-3.03-7.35-4.95
	c2.41,3.69,6.09,6.53,10.26,7.95c-4.03,0.33-8.17-1.19-11.04-4.04c1.61,3.21,4.79,5.58,8.33,6.2c-0.39,1.13-0.79,2.25-1.18,3.38
	c-3.8-3.67-7.61-7.35-11.41-11.02c-0.42-0.4-0.86-0.87-0.88-1.44C101.86,334.01,102.37,333.48,102.85,333.06z M124.88,340.22
	c-0.25,0.37-0.57,0.77-1.01,0.77c-0.44,0-0.68-0.78-0.25-0.86l-0.02,0.09C123.95,339.92,124.53,339.92,124.88,340.22z
	 M101.75,337.64l0.16,0.26c0.85,0.96,1.25,2.31,1.05,3.57C101.56,340.86,100.91,338.91,101.75,337.64z M100.64,351.99
	c-1.56,1.7-3.26,3.28-5.07,4.72C95.12,354.01,97.98,351.35,100.64,351.99z M98.36,368.85c-0.79-2.05-1.6-4.19-1.45-6.39
	c0.15-2.2,1.26-4.22,2.33-6.14c0.61-1.1,1.93-2.35,2.89-1.54c0.36,0.31,0.48,0.81,0.57,1.27c1.19,6.07,1.96,12.22,2.3,18.39
	c-1.52,0.53-3.25-0.2-4.35-1.38C99.54,371.9,98.94,370.35,98.36,368.85z M103.9,379.25l0.09-0.1c-1.4-0.37-2.36-1.93-2.06-3.34
	c0.88,0.15,1.72,0.54,2.4,1.11c0.48,0.39,0.9,0.94,0.86,1.56C105.15,379.09,104.39,379.62,103.9,379.25z M113.54,392.26
	c-1.52-2.55-2.3-5.46-3.04-8.34c-2.54-9.91-4.65-19.93-6.34-30.02c-0.64-3.82-1.19-7.87,0.29-11.44c1.75,2.15,3.57,4.36,6.01,5.66
	c2.45,1.31,5.71,1.49,7.83-0.3c1.96-1.65,5.33-1.15,6.72,1.01c7.04-2.21,14.61-2.68,21.87-1.37c-1.11-4.43-7.06-5.21-11.58-4.57
	c-4.41,0.62-8.75,1.71-12.94,3.24c7.83-8.83,19.94-12.24,31.35-15.24c-6.23,1.3-12.47,2.6-18.7,3.89
	c9.42-5.75,21.11-7.68,31.87-5.25c3.42,0.77,6.91,2.07,9.15,4.77c1.79,2.17,3.16,5.41,5.97,5.52c-1.78-2.96-3.97-5.68-6.48-8.05
	c3.32,1.84,6.65,3.69,9.97,5.53c0.97,0.54,2.08,1.29,2.07,2.4c-0.01,1.11-2.12,1.48-2.04,0.37c0.65,7.03,1.31,14.06,1.96,21.09
	c0.32,3.43,0.64,6.86,0.47,10.3c-0.38,7.76-3.2,15.17-5.99,22.43c-1.47,3.82-3.02,7.77-5.93,10.65c-2.3,2.27-5.27,3.7-8.19,5.09
	c-4.62,2.2-9.45,4.46-14.57,4.37c-2.4-0.04-4.76-0.6-7.07-1.27c-9.45-2.74-18.35-7.34-26.04-13.46
	C117.63,397.27,115.19,395.04,113.54,392.26z M165.73,412.15c-0.13,0.49-0.59,0.88-1.1,0.93l-0.04-0.06
	c-0.69,0.49-1.53,0.75-2.38,0.76c-0.14-0.36-0.03-0.81,0.27-1.05C163.45,412.14,164.63,411.93,165.73,412.15z M142.57,415.44
	c-0.6,0.43-1.52,0.36-2.04-0.17l-0.08,0.07c-0.33-0.46,0.32-1.11,0.88-1C141.88,414.45,142.25,414.97,142.57,415.44z M119.42,431.49
	c-0.9-0.98-1.8-1.95-2.7-2.93c0.59-0.29,1.04-0.85,1.2-1.49c0.32-1.27-0.25-3.06,0.94-3.61
	C120.12,425.92,120.33,428.89,119.42,431.49z M120.72,407.65l-0.15-0.01c-0.62-1.19-0.86-2.56-0.7-3.89c1.13,0.2,1.89,1.36,2.01,2.5
	s-0.25,2.27-0.62,3.36C120.5,409.47,120.51,408.39,120.72,407.65z M122.09,412.93c0.43,1.76,0.47,3.61,0.12,5.39
	c-0.5,0.12-0.85-0.6-0.66-1.08l0.23-0.21C120.88,415.84,121.02,413.98,122.09,412.93z M182.58,424.86
	c-3.04,3.12-6.52,6.41-10.87,6.65c3.76-2.65,7.51-5.31,11.27-7.96c-0.68-1.47-2.9-0.55-4.15,0.49c-3.97,3.29-8.41,6.02-13.14,8.08
	c-2.91,1.27-5.98,2.29-9.16,2.39c-3.21,0.11-6.37-0.72-9.47-1.54c-5.96-1.58-11.93-3.16-17.89-4.74c7.05,3.62,14.71,6.05,22.55,7.18
	c0.63,0.96-1.13,1.66-2.27,1.48c-8.66-1.44-17.03-4.61-24.47-9.27c-1.61-1.01-3.34-2.35-3.47-4.24c-0.16-2.29,2.05-4.03,2.66-6.24
	c0.89-3.23-1.77-6.92-0.2-9.88c3.14,2.04,6.29,4.08,9.43,6.12c10.56,6.85,24.99,7.2,35.86,0.86c-0.77-0.45-1.53-0.91-2.3-1.36
	c2.96,0.53,6-0.86,8.19-2.92c2.19-2.06,3.67-4.74,5.12-7.37c-0.49,3.48-0.99,6.97-1.48,10.45c-0.38,2.68-0.16,6.31,2.47,6.94
	c0.22-1.66,3.15-1.08,3.44,0.56S183.75,423.66,182.58,424.86z"/>
<path class="st0" d="M432.06,408.51c0.51-0.03,0.47,0.79,0.21,1.23c-2.22,3.82-5.05,7.28-8.34,10.23c-1.44,1.29-3.68,2.5-5.15,1.24
	c3.12-1.44,5.8-3.82,7.59-6.75C427.82,412.11,429.77,410.06,432.06,408.51z"/>
<path class="st0" d="M276.44,374.05c0.36,0.14,0.38,0.68,0.12,0.97c-0.26,0.29-0.66,0.38-1.04,0.45c-2.25,0.45-4.5,0.9-6.76,1.34
	c-1.69,0.34-3.5,0.66-5.08-0.02c-0.56,0.03-0.16-0.89,0.36-1.1C267.95,374.12,272.26,373.55,276.44,374.05z"/>
<path class="st0" d="M432,404.73c0.13-0.84,0.26-1.68,0.39-2.52c0.8-5.2,1.74-10.71,5.26-14.63c0.49,0.72,0.21,1.69-0.1,2.51
	c-1.33,3.57-2.66,7.14-3.99,10.71C433.06,402.12,432.57,403.44,432,404.73z"/>
<path class="st0" d="M405.21,388.18c-0.01-2.51,2.22-4.81,4.72-4.88c1.1-0.03,2.16-0.75,2.6-1.76c0.5,0.53,0.98,1.09,1.42,1.68
	C411.11,384.99,408.19,386.64,405.21,388.18z"/>
<path class="st0" d="M307.55,351.16c-3.03,1.38-6.57,1.63-9.76,0.68c-0.26-0.08-0.55-0.19-0.65-0.45c-0.18-0.49,0.48-0.83,0.99-0.92
	C301.26,349.94,304.52,350.18,307.55,351.16z"/>
<path class="st0" d="M419.19,400.81c-0.77-0.62-0.52-1.89,0.11-2.65c0.63-0.76,1.54-1.25,2.16-2.01c0.87-1.07,1.06-2.66,0.47-3.9
	c2.2,0.65,3.76,2.99,3.52,5.26c-0.7-0.77-1.4-1.53-2.1-2.3c-0.99,0.94-0.91,2.5-1.25,3.82
	C421.77,400.34,420.25,401.67,419.19,400.81z"/>
<path class="st0" d="M291.69,374.81c-0.52,0.75-1.49,1.17-2.4,1.04c-0.57-0.08-1.11-0.38-1.41-0.87c4.46-1.97,9.76-1.94,14.2,0.08
	C298.62,374.97,295.16,374.89,291.69,374.81z"/>
<path class="st0" d="M464.19,438.32c-0.5-0.18-1.11-0.61-0.9-1.09c4.68,1.13,9.24,2.73,13.59,4.78c-0.14,0.66-1.1,0.59-1.73,0.36
	C471.5,441.02,467.84,439.67,464.19,438.32z"/>
<path class="st0" d="M253.7,385.49c2.31-0.28,2.48,4.43,4.81,4.44c0.62,0,1.18-0.37,1.79-0.5s1.43,0.17,1.41,0.79
	c-1.91,1.03-4.64,1.91-5.93,0.17C254.72,388.95,254,387.26,253.7,385.49z"/>
<path class="st0" d="M265.58,350.06c0.46,0.2,0.37,0.93-0.02,1.24c-0.39,0.3-0.93,0.32-1.42,0.38c-1.32,0.16-2.56,0.75-3.88,0.82
	c-1.32,0.07-2.87-0.63-3.04-1.95c2.62-0.18,5.25-0.36,7.87-0.53C265.25,350,265.42,349.99,265.58,350.06z"/>
<path class="st0" d="M221.64,430.28c-1.77,2.02-3.55,4.03-5.32,6.05c-0.31,0.35-0.67,0.73-1.14,0.77
	C216.21,434.03,218.64,431.47,221.64,430.28z"/>
<path class="st0" d="M388.85,370.31c-2.44,0.73-4.98,1.11-7.53,1.12c-0.43,0-1-0.13-1.02-0.55c3.19-0.88,6.43-1.56,9.7-2.05
	C390.41,369.44,389.56,370.1,388.85,370.31z"/>
<path class="st0" d="M417.37,279.35c1.34-1.25,2.68-2.51,4.02-3.76c0.54-0.5,1.2-1.04,1.92-0.89c-1.74,2.29-3.82,4.32-6.15,6.01
	C416.62,280.53,416.96,279.73,417.37,279.35z"/>
<path class="st0" d="M422.52,370.44c-1.29,0.57-2.8,0.62-4.12,0.12c-0.64-0.24-1.26-0.63-1.6-1.22
	C418.72,368.7,420.96,369.14,422.52,370.44z"/>
<path class="st0" d="M304.29,370.52c0.23-0.01,0.45,0.14,0.62,0.29c1.4,1.22,1.9,3.36,1.19,5.07c-0.69-1.2-1.37-2.41-2.06-3.61
	C303.7,371.65,303.58,370.55,304.29,370.52L304.29,370.52z"/>
<path class="st0" d="M304.46,355.32c1.91-0.98,3.82-1.99,5.71-3.01C309.45,354.58,306.74,356.01,304.46,355.32z"/>
<path class="st0" d="M381.99,406.36c0.24,2.42,0.76,4.82,1.53,7.13C381.35,411.93,380.65,408.66,381.99,406.36z"/>
<path class="st0" d="M392,359.47c-0.72-0.36-1.19-1.19-1.13-1.99c1.44-0.23,2.87,1.26,2.57,2.69c-0.55-0.01-1.09-0.24-1.46-0.64
	L392,359.47z"/>
<path class="st0" d="M279.68,337.01c-0.93-0.6-1.28-1.95-0.76-2.93c0.78,0.76,1.36,1.74,1.65,2.8c-0.11,0.38-0.7,0.5-0.94,0.18
	L279.68,337.01z"/>
<path class="st0" d="M280.37,301.87c1.97-1.67,3.94-3.34,5.91-5.01C285.85,299.65,283.19,301.9,280.37,301.87z"/>
<path class="st0" d="M401.03,299.27c-1.29,1.66-2.85,3.12-4.59,4.29C396.83,301.35,398.79,299.51,401.03,299.27z"/>
<path class="st0" d="M133.91,360.14c-0.96-1.03-2.58-0.91-3.99-0.97c-1.41-0.05-3.13-0.7-3.22-2.1c1.11,0.17,2.32,0.32,3.29-0.23
	s1.41-2.12,0.5-2.79c-1.75,0.53-3.37,1.49-4.69,2.75c-0.73,0.66-1.98-0.28-1.91-1.26c0.07-0.98,0.94-1.7,1.81-2.15
	c3.1-1.63,6.82-1.32,10.31-0.97c1.5,0.15,3.01,0.3,4.51,0.46c2.01,0.2,4.31,0.58,5.35,2.32c0.57,0.95,0.43,2.46-0.61,2.84
	c-1.05-1.55-2.38-2.91-3.92-3.98c-0.22,1.29,0.22,2.68,1.16,3.6c-1.95,0.83-3.9,1.65-5.85,2.48
	C135.75,360.52,134.58,360.85,133.91,360.14z"/>
<path class="st0" d="M177.83,355.95c0.18,1.42,0.36,2.83,0.54,4.25c-2.15-0.92-4.56-1.25-6.88-0.94c-0.94,0.13-1.92,0.35-2.81,0.02
	c-0.89-0.33-1.52-1.52-0.91-2.25c-0.83-0.6-1.95-0.04-2.92,0.28s-2.46-0.05-2.33-1.06c0.06-0.45,0.46-0.78,0.84-1.04
	c3.23-2.19,7.28-2.81,11.18-2.74c4.09,0.07,8.89,1.43,10.21,5.3c0.34,0.99-1.16,1.73-2.1,1.26c-0.94-0.46-1.43-1.49-2.09-2.29
	S178.66,355.33,177.83,355.95z"/>
<path class="st0" d="M164.28,377.01c-2.48,0.75-4.57,2.49-7.08,3.12c-1.37,0.34-3.07,0.19-3.81-1.01c0.54-0.6,1.46-0.55,2.25-0.72
	c1.7-0.37,2.91-1.86,4.45-2.69S164.16,375.27,164.28,377.01z"/>
<path class="st0" d="M134.72,382.95c0.75,0.98,0.5,2.36,0.57,3.59s0.97,2.71,2.16,2.4c12.9-3.35,26.62-3.5,39.6-0.43
	c-6.08,8.4-18.53,11.42-27.79,6.76c2.27,0.02,4.53,0.05,6.8,0.07c4.87,0.05,10.1,0,14.06-2.82c0.84-0.6,1.65-1.73,1.03-2.55
	c-0.2-0.26-0.51-0.41-0.81-0.55c-1.98-0.88-4.17-1.28-6.33-1.18c-5.08,0.26-10.17,0.51-15.25,0.77c-1.35,0.07-3.05,0.43-3.29,1.75
	c-0.29,1.59-2.31,2.23-3.9,1.93c-1.59-0.3-3.01-1.21-4.61-1.47c-1.78-0.29-3.32-1.68-3.8-3.41
	C132.7,386.08,133.33,384.1,134.72,382.95 M143.4,390.98c-0.28,0.37,0.51,0.74,0.82,0.39c-0.05-0.41-0.16-0.9-0.56-1.03
	s-0.7,0.64-0.29,0.66L143.4,390.98z"/>
<path class="st0" d="M150.6,402.58c-0.95-0.34-1.97-0.83-2.36-1.76c-0.4-0.93,0.37-2.29,1.35-2.04c4.71,1.23,9.58,1.81,14.44,1.72
	c-1.12,0.85-2.24,1.7-3.36,2.55c-0.51,0.39-1.05,0.79-1.68,0.94c-0.39,0.09-0.79,0.08-1.19,0.05
	C155.35,403.92,152.91,403.42,150.6,402.58z"/>
<path class="st0" d="M143.81,377.35c-0.72-1.92-0.06-4.27,1.56-5.54c0.65-0.51,1.41-0.84,2.17-1.17c0.87-0.38,1.75-0.76,2.62-1.14
	c0.28,0.59-0.1,1.3-0.64,1.68c-0.53,0.37-1.19,0.53-1.77,0.83c-1.31,0.67-2.17,2.14-2.12,3.61c0.05,1.47,1.01,2.88,2.37,3.46
	C146.66,380.27,144.43,379.02,143.81,377.35z"/>
<path class="st0" d="M172.97,349.35c-2.5,0.85-5.01,1.7-7.51,2.56c-0.72,0.25-1.58,0.47-2.19,0.01
	C165.5,349.12,169.64,348.02,172.97,349.35z"/>
<path class="st0" d="M181.89,344.91c-0.26,0.28-0.68,0.33-1.06,0.37c-3.97,0.39-7.93,0.77-11.9,1.16c-1.01,0.1-2.07,0.19-3.01-0.19
	c-0.94-0.38-1.72-1.38-1.48-2.36c0.3-1.23,1.82-1.64,3.08-1.77c4.22-0.43,8.51-0.2,12.67,0.66
	C181.28,343,182.66,344.1,181.89,344.91z"/>
<path class="st0" d="M165.58,377.37c0.82-0.19,1.32-1.08,1.34-1.92c0.02-0.84-0.33-1.64-0.67-2.41c-0.26-0.58-0.52-1.16-0.78-1.74
	c1.8,0.21,3.57,1.59,3.7,3.4S167.17,378.24,165.58,377.37z"/>
<path class="st0" d="M177.63,386.53c-0.43-0.22-0.86-0.44-1.29-0.66c0.07-1.2,0.33-2.38,0.77-3.5c1.3,0.78,1.58,2.82,0.54,3.92
	L177.63,386.53z"/>
<path class="st0" d="M138.44,349.87c1.68-0.49,3.49-0.52,5.19-0.1c1.27,0.32,2.55,0.94,3.25,2.05
	C143.95,352.11,140.94,351.41,138.44,349.87L138.44,349.87z"/>
<path class="st0" d="M154.71,376.6c0.13,0.49-0.37,0.91-0.83,1.11c-1.86,0.82-4.15,0.57-5.78-0.63c1.5-1.56,4.02-2.01,5.98-1.09
	C154.35,376.12,154.63,376.3,154.71,376.6z"/>
<path class="st0" d="M149.89,404.71c0.19-0.12,0.42-0.15,0.64-0.17c3.24-0.33,6.58,0.46,9.33,2.19c-2.66,0.01-5.31,0.03-7.97,0.04
	c-0.65,0-1.35-0.01-1.88-0.4C149.5,405.98,149.34,405.06,149.89,404.71z"/>
<path class="st0" d="M425.61,314.34c-3.96-0.09-8.12,1.4-11.78-0.1c-2.08-0.85-4.43-0.68-6.67-0.49c-3.8,0.32-7.59,0.64-11.39,0.96
	c-7.67,0.65-16.17,1.7-21.18,7.54c-3.8,4.43-4.66,10.61-5.12,16.42c-1.51,19.11-0.44,38.42,3.19,57.25
	c-5.28-8.79-5.51-19.61-5.6-29.86c-0.06-7.04-0.12-14.08-0.17-21.11c-0.06-6.89-0.03-14.12,3.29-20.16
	c2.67-4.86,7.42-8.52,12.8-9.87c-4.74,0.27-9.37,2.25-12.83,5.5c7.15-9.09,15.48-17.24,24.72-24.18c8.21-2.64,17.2-2.83,25.52-0.55
	c-7.18-3.77-15.95-4.39-23.58-1.65c2.73-2.46,6.48-3.73,10.14-3.45c0.28-1.2,0.04-2.51-0.64-3.54c-3.26,0.97-6.75,1.15-10.09,0.52
	c2-0.44,4.01-0.88,6.01-1.32c-1.94-2.14-6.1-1.33-7.09,1.38c-2.03,0.07-4.06,0.15-6.09,0.22c7.33-5.73,17.45-7.69,26.39-5.13
	c2.19,0.63,4.31-1.07,5.96-2.64c4.66-4.43,9.31-8.87,13.97-13.3c-2.23,5-5.18,9.67-8.75,13.82c5.82-2.31,11.32-5.43,16.29-9.24
	c-2.39,3.57-4.79,7.14-7.18,10.7c1.79-0.21,3.66,0.9,4.33,2.58c-2.08-0.35-4.16-0.7-6.24-1.05c-0.37,1.84,2.37,2.39,4.25,2.31
	c7.55-0.32,14.66,3.21,21.39,6.65c5.32,2.72,11.31,6.39,11.86,12.34c-4.7-3.75-9.41-7.49-14.11-11.24
	c-0.27,0.99-0.54,1.99-0.81,2.98c8.75,9.05,16.64,18.93,23.51,29.48c-7.94-3.31-14.51-9.79-17.94-17.69
	c0.67,0.29,1.34,0.58,2.02,0.88c-3.3-6.17-9.5-10.71-16.38-12c0.38,1.97,2.92,2.41,4.89,2.78c1.97,0.37,4.32,2.17,3.3,3.89
	c4.55,10.49,11.97,19.72,21.24,26.42c-1.27,1.53-3.7,0.11-5.08-1.32c-9.08-9.33-18.17-18.65-27.25-27.98
	c3.37,7.08,9.78,12.14,14.77,18.18c4.99,6.04,8.68,14.52,5.33,21.61c-2.3,0.15-2.46-3.28-2.23-5.58c0.79-7.87-4.56-14.89-9.62-20.98
	c-4.36-5.25-8.71-10.49-13.07-15.74c-0.56,3.87,2.85,7.01,5.63,9.77c6.7,6.65,11.31,15.37,13.04,24.65
	c-3.21-6.81-6.99-13.36-11.28-19.55c5.28,14.34,6.29,30.22,2.87,45.12c1-1.45,3.42-1.13,4.59,0.2c1.16,1.33,1.38,3.22,1.47,4.98
	c0.59,12.31-3.13,24.78-10.37,34.74c0.66-3.19,1.32-6.38,1.98-9.57c-6.95,11.48-10.38,25.06-9.7,38.47c0.04,0.76,0.1,1.56,0.5,2.21
	c0.51,0.83,1.48,1.25,2.39,1.61c6.65,2.64,13.57,4.6,20.63,5.84c-0.23-0.85-1.73-0.11-1.52,0.75c0.21,0.86,1.18,1.25,2.03,1.51
	c10.79,3.29,21.59,6.58,32.38,9.87c-0.92,0.47-1.85,0.93-2.77,1.4c3.94,3.11,7.03,7.29,8.84,11.98c-12-13.39-29.49-21.7-47.45-22.56
	c-1.56-0.08-3.23-0.07-4.57,0.74c-3.28,2-2.37,6.93-1.05,10.54c2.32,6.33,4.64,12.66,6.96,18.99c-3.04-6.44-6.08-12.89-9.12-19.33
	c1.45,8.51,3.45,16.93,5.99,25.19c-14.72,3.32-29.96,4.28-44.98,2.86c13.03-1.39,26.06-2.79,39.1-4.18
	c-0.81,0.36-1.51,0.98-1.95,1.75c1.66,0.98,3.91-0.34,4.6-2.14c0.69-1.8,0.29-3.81-0.14-5.68c-1.86-8.18-4.04-16.29-6.53-24.3
	c-17.67,8.9-39.49,9.03-57.26,0.35c-2.13,6.6-4.25,13.2-6.38,19.8c1.54-7.14,3.09-14.28,4.63-21.42c-3.01,6.97-6.02,13.93-9.04,20.9
	c1.91-6.08,3.81-12.15,5.72-18.23c0.54-1.73,0.82-4.11-0.82-4.88c-0.69-0.32-1.5-0.2-2.25-0.08c-3.06,0.52-6.12,1.03-9.18,1.55
	c3.53-2.84,8.56-3.06,12.96-1.97c4.39,1.09,8.41,3.32,12.6,5.03c15.8,6.43,34.58,5,49.23-3.74c-7.39-11.4-7.99-26.87-1.5-38.81
	c-6.17,5.41-6.04,15.68-12.23,21.06c-2.08,1.8-4.69,2.87-7.3,3.75c-11.75,3.93-26.33,3.81-34.69-5.33c0.55,3.52,3.86,6.39,7.42,6.45
	c-2.15,1.27-5.29,0.3-6.35-1.96c-0.47,4.51-0.95,9.03-1.42,13.54c-0.28-1.18-0.56-2.36-0.83-3.54c-0.73,0.85-1.46,1.69-2.19,2.54
	c-0.11-1.88,0.72-3.8,2.19-4.99c-7.21-0.53-14.56,0.97-20.99,4.28c5.02-0.79,10.05-1.57,15.07-2.36c-10.81,3.3-21.61,6.6-32.42,9.9
	c-6.37,1.94-12.79,3.91-18.55,7.25c0.93-2.62,3.84-3.88,6.45-4.84c10.64-3.93,21.28-7.85,31.93-11.78
	c6.27-2.31,12.76-4.66,19.43-4.3c-2.26-8.12-6.84-15.58-13.06-21.27c3.62,3.4,7.27,6.83,11.49,9.46
	c-7.4-6.83-12.62-15.97-14.75-25.81c5.9,6.75,10.14,14.76,14.33,22.69c1.05-1.32,3.35-1.32,4.41-0.01
	c-1.69,1.54,1.35,3.74,3.62,3.97c10.86,1.13,21.75,1.97,32.65,2.53c-0.77-0.49-1.54-0.98-2.31-1.47
	c14.26-11.23,23.34-28.79,24.26-46.91c0.19-3.66,0.06-7.33-0.07-10.99c-0.19-5.38-0.38-10.76-0.57-16.14
	c-0.26-7.33-0.56-14.87-3.51-21.59S432.95,314.51,425.61,314.34 M433.83,303.24c-1.11-0.88-1.25-2.48-1.79-3.79
	s-2.28-2.45-3.29-1.45c-0.96,0.95-2.53,0.69-3.84,0.36c-1.85-0.46-3.69-0.93-5.54-1.39c-0.93-0.23-1.33,1.37-0.6,2
	c0.73,0.63,1.8,0.53,2.76,0.51c5.04-0.11,9.73,3,12.76,7.03c3.04,4.03,4.7,8.9,6.24,13.7c0.97,3.01,2.01,6.2,4.41,8.27
	c1.91,1.65,3.44,3.74,4.43,6.06c-0.67-7.24-2.04-14.41-4.1-21.38c-0.16-0.53-0.34-1.1-0.8-1.41c-0.45-0.31-1.24-0.16-1.33,0.38
	c1.39,3.85,1.63,8.11,0.7,12.09c-1.33-0.46-1.52-2.21-1.65-3.62c-0.41-4.23-2.43-8.11-4.4-11.88
	C436.71,306.73,435.6,304.66,433.83,303.24 M425.29,305.79c-0.28-0.75-1.19-1.64-1.69-1c0.22,2.12,0.81,4.21,1.73,6.14
	c-0.62,0.31-1.37,0.35-2.03,0.11c-0.3-1.84-0.61-3.69-0.91-5.53c-0.34-2.08-1.18-4.65-3.28-4.85c-0.28-0.03-0.62,0.02-0.76,0.27
	c-0.1,0.16-0.09,0.36-0.07,0.55c0.12,1.46,0.23,2.92,0.35,4.38c0.09,1.09,0.19,2.22,0.75,3.15c0.32,0.54,0.79,1.01,0.99,1.61
	c0.2,0.6-0.04,1.42-0.67,1.53c3.38,0.26,6.77,0.52,10.15,0.78c1.59,0.12,3.23,0.26,4.63,1.03c0.96,0.53,1.76,1.35,2.26,2.33
	c-0.13-5.98-5.14-10.59-9.9-14.21c-0.42-0.32-0.87-0.65-1.4-0.7c-0.53-0.05-1.13,0.29-1.15,0.82c3.37,2.08,5.97,5.36,7.23,9.11
	c-0.21,0.35-0.59,0.59-1,0.62c-0.69-1.13-1.48-2.21-2.36-3.21c-0.15,0.75-0.52,1.45-1.04,2
	C426.52,309.08,425.91,307.44,425.29,305.79 M448.61,382.52c0.33,2.36,0.66,4.71,0.99,7.07c2.4-4.45,2.92-9.64,3.4-14.67
	c0.46-4.84,0.92-9.69,1.38-14.53c0.02-0.21,0.04-0.44-0.08-0.62c-0.22-0.36-0.77-0.28-1.15-0.1c-2.84,1.32-3.49,5.06-3.29,8.19
	c0.2,3.13,0.81,6.51-0.79,9.2C448.13,378.66,448.35,380.67,448.61,382.52 M396.45,308.55c2.19,0.34,4.31-2.01,3.76-4.15
	c-0.46-1.79,1.13-3.41,2.67-4.43c1.53-1.03,3.34-2.14,3.61-3.96c-1.92,0.21-3.84,0.45-5.75,0.74c-1.37,0.2-2.79,0.45-3.9,1.28
	c-2.22,1.66-2.34,4.89-2.25,7.66c0.03,0.97,0.06,1.95,0.09,2.92c0.03,0.86,0.06,1.75,0.44,2.52c0.38,0.77,1.21,1.39,2.05,1.25
	c0.92-0.15,1.51-1.22,1.3-2.13C398.25,309.34,397.38,308.68,396.45,308.55 M414.99,297.3c0.4-0.11,0.75-0.37,0.98-0.71
	c-2.16-0.57-3.9,1.99-4.08,4.22c-0.18,2.23,0.4,4.6-0.55,6.63c-0.66,1.42,0.28,3.17,1.64,3.95c1.36,0.77,3,0.83,4.57,0.86
	c-0.33-3.47-0.65-6.93-0.98-10.4C416.43,300.21,416.2,298.41,414.99,297.3 M405.47,309.46c-0.82,0.17-0.92-1.16-0.6-1.94
	c1.12-2.71,2.23-5.41,3.35-8.12c-1.15-0.79-2.52,0.68-3.11,1.95c-1.36,2.93-2.5,5.97-3.38,9.08c-0.07,0.26-0.14,0.54-0.04,0.78
	c0.1,0.22,0.32,0.36,0.54,0.47c2.81,1.38,6.69-0.66,7.15-3.75c0.46-3.03,0.91-6.05,1.37-9.08c-0.61-0.29-1.38,0.09-1.75,0.66
	c-0.38,0.57-0.47,1.27-0.58,1.94C407.95,304.28,406.95,307.01,405.47,309.46 M434.17,295.49c0.65-0.04,1.29-0.33,1.75-0.8
	c-0.47-0.84-1.97-0.72-2.3,0.19c-0.5-0.15-0.72-0.73-0.84-1.24c-0.12-0.51-0.25-1.09-0.7-1.35c-0.45-0.26-1.2,0.25-0.91,0.68
	c1.57,2.33,1.49,5.49,3.11,7.8c0.56,0.8,1.3,1.45,2.03,2.09c2.76,2.43,5.52,4.85,8.3,7.26c-0.1-3.98-5.42-5.83-6.61-9.62
	c-0.39-1.24-0.61-2.95-1.9-3.14c-0.21,0.62,0.18,1.27,0.3,1.92c0.12,0.65-0.39,1.53-0.99,1.26c-0.29-0.13-0.41-0.47-0.5-0.78
	C434.52,298.38,434.27,296.94,434.17,295.49 M392.07,302.74c0.54-0.63,1.08-1.65,0.44-2.2c-4.07,2.61-8.46,5.65-9.65,10.34
	c0.11,0.53,0.8,0.77,1.31,0.6c0.52-0.16,0.9-0.59,1.25-1.01C387.64,307.9,389.86,305.32,392.07,302.74 M441.38,436.47
	c-0.06,2.28,2.44,3.95,4.71,3.88c2.28-0.06,4.33-1.33,6.25-2.56c0.43-0.27,0.84-0.97,0.37-1.16c-1.19,1.37-3.38,0.5-5.11-0.05
	C445.6,435.95,443.41,435.91,441.38,436.47 M426.32,285.1c1.39-0.51,2.78-1.03,4.17-1.54c2.19-0.81,4.79-2.16,4.78-4.5
	c-4.27,2.24-8.67,4.24-13.16,5.99c-1.19,0.46-2.54,1.07-2.9,2.29C421.64,286.83,423.99,285.96,426.32,285.1 M437.78,291.19
	c-0.21,0.62,0.49,1.15,1.1,1.38c2.5,0.98,5.34,1.05,7.88,0.19c1.23-0.41,3.04,0.48,3.64-0.67c-0.44-0.78-1.51-0.87-2.4-0.87
	C444.58,291.21,441.18,291.2,437.78,291.19 M413.69,284.97c0.59-0.05,1.29-0.19,1.51-0.74c-3.81-1.3-8.13-1.02-11.75,0.74
	c0.84,0.77,2.11,0.72,3.25,0.62C409.03,285.39,411.36,285.18,413.69,284.97 M397.27,425.66c1.9,0.14,3.81,0.28,5.71,0.41
	c1.67,0.12,3.38-0.38,4.72-1.39c-4.2-0.22-8.41-0.23-12.61-0.03C395.43,425.43,396.44,425.6,397.27,425.66 M426.66,297.09
	c-1.73-2.25-4.03-4.07-6.63-5.23c-0.36-0.16-0.74-0.25-1.13-0.26C420.22,294.66,423.33,296.87,426.66,297.09 M407.91,290.85
	c0.74,0.77,2.06,0.02,2.63-0.89c0.56-0.91,0.97-2.08,1.98-2.43c-0.74-1.06-2.45-1.05-3.42-0.21
	C408.12,288.17,407.79,289.57,407.91,290.85 M424.56,279.21c-2.17,1.61-4.39,3.27-5.89,5.52c3.12-1.08,5.89-3.15,7.81-5.84
	C425.99,278.37,425.14,278.78,424.56,279.21 M387.98,309.59c0.07,0.77,1.28,0.51,1.88,0.03c0.85-0.68,1.73-1.38,2.27-2.32
	c0.55-0.94,0.69-2.2,0.07-3.1c-1.29,1.55-2.59,3.1-3.88,4.65C388.14,309.06,387.95,309.31,387.98,309.59 M438.88,307.35
	c0.56,1.74,1.13,3.48,1.69,5.22c0.15,0.47,0.54,1.06,0.99,0.86c1.12-0.75,1.18-2.48,0.47-3.63
	C441.32,308.65,440.08,307.96,438.88,307.35 M450.08,345.69c0.6-3.38,0.4-6.9-0.56-10.19C448.57,338.83,448.77,342.48,450.08,345.69
	 M434.47,288.99c2.99,0.05,5.99,0.09,8.98,0.14C440.91,287.16,437.06,287.1,434.47,288.99 M447.89,342.79
	c-0.02-0.27-0.09-0.61-0.36-0.68c-0.15-0.04-0.33,0.04-0.39,0.18c-0.67,3.18-0.14,6.59,1.45,9.42
	C448.36,348.74,448.13,345.77,447.89,342.79 M446.38,434.6c-2.09-1.35-4.61-2.03-7.1-1.91C440.91,434.75,443.93,435.56,446.38,434.6
	 M416.67,426.98c-2.66-0.53-5.43-0.53-8.1,0C411,428.47,414.25,428.47,416.67,426.98 M450.79,293.93c0.4,1.72,1.65,3.22,3.27,3.93
	C454.89,295.93,452.84,293.46,450.79,293.93 M418.46,291.69c-1.42-0.37-2.1-2.47-3.56-2.35c-0.41,0.03-0.8,0.27-1.02,0.62
	c0.52,0.84,1.08,1.72,1.94,2.2C416.69,292.64,417.96,292.54,418.46,291.69 M393.48,311.28c-0.12-0.59-0.57-1.11-1.15-1.3
	c-1.3-0.2-2.27,1.75-1.32,2.66c0.94,0.91,2.86-0.11,2.62-1.4 M447.96,352.55c-0.81,2.69-0.83,5.61-0.07,8.32
	C448.52,358.15,448.55,355.28,447.96,352.55 M450.86,296.61c-0.05-1.13-1.02-2.09-2.13-2.3c-0.98-0.19-2.05,0.17-2.73,0.9
	C447.6,295.76,449.22,296.22,450.86,296.61 M410.31,423.7c-0.79-0.16-1.66,0.33-1.94,1.09c1.87,0.32,3.8,0.29,5.66-0.1
	c-0.9-1-2.42-1.38-3.68-0.92 M426.43,294.87c0.52,1.13,2.06,1.66,3.17,1.08c-0.56-1.27-2.21-1.92-3.49-1.38 M472.41,318.91
	c-0.35-0.77-1.12-1.34-1.96-1.44c-0.45,1.14,1.2,2.4,2.18,1.66 M409.34,297.3c0.59-0.02,1.17-0.33,1.52-0.81
	c-0.83-0.72-2.36-0.26-2.66,0.8c0.37,0.08,0.75,0.16,1.12,0.24 M396.74,428.36c0.25,0.49,1.01,0.62,1.41,0.23
	c0.14-0.47-0.22-1.03-0.71-1.09c-0.49-0.06-0.98,0.39-0.95,0.88 M404.51,428.58c0,0.74,1.13,0.73,1.82,0.46
	c0.06-0.73-1.07-0.76-1.76-0.49 M425.05,289.75c0.61-0.29,0.84-1.16,0.46-1.72c-0.78,0.18-1.19,1.48-0.43,1.75 M427.19,286.39
	c0.64,0.09,1.19-0.74,0.86-1.29C427.4,285.13,426.76,285.91,427.19,286.39 M412.31,290.7c-0.36-0.26-0.72,0.48-0.4,0.79
	c0.4,0.13,0.86,0.02,1.16-0.27c-0.22-0.22-0.43-0.43-0.65-0.65 M454.59,293.4c0.14-0.69-1.16-1.15-1.18-0.45
	c0.15,0.47,0.79,0.71,1.2,0.44 M492.38,452.52c-0.17-0.43-0.97-0.25-0.95,0.21c-0.04,0.6,1.19,0.32,0.91-0.2L492.38,452.52z"/>
<path class="st0" d="M360.06,430.41c-15.07-5.81-30.7-10.18-46.6-13.02c-1.27,4.93-5.38,8.75-9.99,10.91
	c-4.61,2.16-9.75,2.91-14.8,3.59c-5.5,0.74-11.17,1.42-16.55,0.04c-6.02-1.54-11.14-5.57-15.26-10.22
	c-1.79-2.02-5.04-1.37-7.62-0.55c-14.79,4.74-29.49,9.77-44.09,15.06c-0.49,0.24-0.99-0.5-0.77-1c0.22-0.5,0.79-0.73,1.3-0.92
	c12.72-4.56,25.44-9.12,38.16-13.68c-9.48-1.42-17.84,6.72-27.38,7.6c11.91-6.74,24.76-11.82,38.06-15.04
	c1.66-4.26,0.4-9.49-3.01-12.54c0.89,0.25,1.78,0.49,2.66,0.74c-4.22-7.17-8.43-14.34-12.65-21.51c1.06,0.11,2.07,0.65,2.75,1.47
	c-0.71-4.14-2.26-8.14-4.54-11.68c0.52,0.6,1.61,0.14,1.88-0.6c0.27-0.75,0.01-1.57-0.22-2.33c-1.41-4.65-1.62-9.65-0.61-14.4
	c0.33-1.53,0.78-3.07,0.59-4.62c-0.19-1.55-1.25-3.13-2.8-3.32c-1.58-0.19-3.02,1.16-3.48,2.68c-0.47,1.52-0.21,3.16,0.06,4.73
	c1.14,6.75,2.27,13.49,3.41,20.24c-5.26-6.16-5.33-15.07-5.13-23.17c0.07-2.99,1.22-7.02,4.2-6.75c-0.93-0.14-1.87-0.27-2.8-0.41
	c1.06-1.38,3.12-1.89,4.71-1.17c-1.58-6.21-1.27-12.89,0.89-18.92c0.38,3.98,0.18,8.01-0.6,11.93c0.87-1.84,1.75-3.68,2.62-5.51
	c1.62,9.82,0.5,19.86,0.44,29.81c-0.06,9.95,1.1,20.38,6.64,28.65c0.22-1.08,0.99-2.03,2.01-2.46c1.78,5.6,4.83,10.78,8.87,15.04
	c-0.61-1.67-1.21-3.34-1.82-5.01c3.09-0.56,5.37,2.67,6.99,5.36c1.62,2.69,4.58,5.62,7.4,4.26c2.25-1.08,5.86,1.41,7.02-0.8
	c0.83-1.57-1.05-3.13-2.58-4.03s-3.13-2.93-1.87-4.18c0.58-0.57,1.49-0.58,2.3-0.56c4.23,0.13,8.47,0.25,12.7,0.38
	c-1.87,2.78-5.08,4.62-8.43,4.81c1.75-0.85,2.96,1.86,3.12,3.8s1.78,4.54,3.34,3.37c-2.1-1.32-2.72-4.51-1.28-6.52
	c-0.65,2.27,1.91,4.44,4.27,4.27c2.35-0.17,4.29-1.88,5.86-3.64c2.69-3.03,4.85-6.53,6.38-10.29c-0.49,3.15-0.98,6.29-1.47,9.44
	c1.66-3.13,3.33-6.25,4.99-9.38c0.79,0.3-0.65,1.4-1.07,0.66c-0.42-0.74,0.19-1.62,0.71-2.28c2.69-3.39,4.19-7.71,4.16-12.03
	c0.92,3.51,0.69,7.32-0.66,10.7c1.81,0.58,3.8-0.6,4.78-2.22c0.98-1.63,1.18-3.59,1.34-5.48c1.55-17.79,2.11-35.67,1.68-53.52
	c-0.04-1.45-0.08-2.91-0.33-4.34c-1.37-7.85-8.48-13.19-15.04-17.71c-8.06,0.15-16.12,0.31-24.17,0.46
	c-1.59,0.03-3.35,0.13-4.49,1.24c-1.14,1.11-0.84,3.57,0.75,3.74c0.69-1.77,2.21-3.19,4.02-3.75c0.33,2.08-1.48,4.22-3.58,4.26
	c-2.1,0.03-3.97-2.06-3.71-4.14c-1.16-1.08-3.1-0.46-4.28,0.6s-2.05,2.49-3.44,3.25c-1.39,0.75-3.63,0.28-3.82-1.29
	c-2.21,2.32-5.45,3.62-8.66,3.46c-2.97-0.15-3.6,4.88-1.08,6.45c2.52,1.57,5.87,0.42,8.29-1.3c-0.74,3.18-5.15,4.42-7.93,2.73
	c-2.79-1.69-3.9-5.32-3.52-8.56c-1.09,0.49-2.19,0.98-3.28,1.47c1.07-1.61,2.14-3.23,3.21-4.84c-2.28,0.92-4.89-1.31-5.14-3.76
	c-0.25-2.45,1.17-4.77,2.85-6.57c1.68-1.8,3.68-3.33,5.06-5.37c-0.01-0.85-0.53-1.68-1.29-2.06c-1.47,0.1-2.51,1.94-1.84,3.25
	c-0.9,0.42-1.81,0.84-2.71,1.26c-1.88-0.51-3.5-1.93-4.26-3.73c1.1,8.16,1.36,16.43,0.77,24.64c-0.14-0.71-1.19-1.03-1.71-0.52
	c-0.52,0.51-0.21,1.56,0.51,1.71c2.21,1,4.99,0.58,6.8-1.03c-0.4,2.9-4.75,4.23-6.7,2.05c-0.81,2.29-1.61,4.58-2.42,6.87
	c0.35-3.91-0.76-7.93-3.06-11.11c-3.08-4.25-1.11-10.15,0.94-14.97c1.27-2.97,2.54-5.95,3.8-8.92c0.6-1.4,1.27-2.88,2.56-3.68
	c1.44-0.89,3.28-0.7,4.92-1.1c1.64-0.4,3.32-2.09,2.55-3.6c-2.05-0.31-4.13,1.57-4.05,3.64c-1-1.56-0.66-3.83,0.74-5.03
	c1.4-1.2,3.69-1.19,5.08,0.03c1.16,1.01,1.63,2.63,2.78,3.66c1.14,1.03,3.59,0.74,3.53-0.79c-0.9,0.54-2.13,0.44-2.93-0.23
	c0.4-2.02,1.35-3.93,2.72-5.47c-1.94,0-3.88,0.57-5.52,1.62c0.1-3.04,4.53-3.27,7.48-2.53c2.95,0.74,7.42,0.33,7.34-2.71
	c-0.83,0.21-1.74-0.62-1.59-1.46c5.66,1.28,11.54-0.14,17.34-0.15c5.8-0.02,12.42,2.08,14.54,7.48c0.98,2.49,4.28,3.01,6.95,2.72
	s5.6-0.92,7.84,0.56c4.19,2.77,2.05,10.05,5.64,13.57c-0.36-3.06-0.72-6.11-1.08-9.17c2.48,3.91,4.03,8.41,4.49,13.02
	c1.39,14.02,1.53,28.17,0.42,42.22c1.58-1.17,3.97-0.41,5.22,1.11c1.25,1.51,1.66,3.53,2.02,5.46c1.37,7.31,2.23,16.17-3.48,20.93
	c-2.67,2.22-4.02,5.6-5.27,8.84c-1.91,4.94-3.82,9.89-5.73,14.83c-2.18,5.64-4.38,11.9-2.33,17.59c0.32,0.89,0.86,1.85,1.79,2.06
	c13.56,3.16,27.12,6.32,40.68,9.48c1.16,0.27,2.46,1.87,1.33,2.24c-6.69-2.34-13.59-4.71-20.66-4.31
	C343.27,422.19,352.1,425.58,360.06,430.41 M305.21,397.42c2.93-1.3,5.27-3.87,6.29-6.91c0.2-0.59,0.12-1.53-0.51-1.51
	C309.6,392.14,307.63,395.01,305.21,397.42 M270.9,282.12c-0.8-0.38-2.2-0.03-1.88,0.79c0.14,0.36,0.56,0.5,0.94,0.59
	c1.02,0.27,2.04,0.53,3.06,0.8c0.65,2.82-4.88,4.14-4.29,6.98c1.77-1.07,3.55-2.15,5.32-3.22
	C274.41,285.69,273.07,283.15,270.9,282.12 M311.65,303.63c-0.44-1.79-0.28-3.72,0.46-5.4c-0.22-0.29-0.71-0.32-0.97-0.06
	c-0.7,0.53-1.43,1.09-1.82,1.88c-0.39,0.79-0.33,1.87,0.38,2.4c1.01,0.75,2.04,1.56,2.64,2.66c0.6,1.11,0.66,2.61-0.18,3.54
	c0.17,0.9,0.95,1.65,1.85,1.8c-0.19-0.57-0.37-1.2-0.13-1.75s1.09-0.83,1.44-0.34c-0.96-1.92-1.55-4.02-1.73-6.16
	c-0.3-0.21-0.7-0.27-1.05-0.18C312.62,302.67,312.24,303.35,311.65,303.63 M306,289.36c-0.86,0.37-1.61-1.21-0.79-1.65
	c-0.77-0.6-1.53-1.2-2.3-1.8c-1.19,1.33-0.08,3.4,1.05,4.79c1.13,1.39,2.31,3.39,1.19,4.79c0.34,0.94,1.88,0.79,2.41-0.06
	c0.53-0.85,0.33-1.95,0.04-2.91c-0.22-0.74-1-1.64-1.57-1.12c-0.01-0.64-0.03-1.28-0.04-1.92c0.71,0.18,1.5-0.41,1.55-1.14
	c0.04-0.73-0.68-1.41-1.4-1.32C305.94,287.79,305.9,288.58,306,289.36 M308.75,416.23c-1.52-4.2-2.04-8.76-1.49-13.19
	c-3.73,4.5-7.84,8.83-12.95,11.68c-5.11,2.85-11.37,4.07-16.88,2.12c0.65-0.6,1.37-1.12,2.14-1.55c-5.9,0.25-11.85-2.55-15.41-7.26
	c-3.25-4.3-4.97-10.33-9.94-12.39c4.17,6.27,8.63,12.35,13.35,18.21c-3.56-1.5-6.63-4.12-8.68-7.39c-1.51,3.12,1.6,7.36-0.5,10.1
	c-1.05,1.37-0.74,3.43,0.29,4.82c1.03,1.39,2.62,2.23,4.19,2.95c13.2,5.98,29.23,5.3,41.87-1.8
	C307.1,421.2,309.68,418.78,308.75,416.23 M323.12,367.36c1.04-3.14,1.99-6.32,2.85-9.51c0.47-1.74,0.91-3.58,0.42-5.31
	c-0.25-0.9-0.75-1.73-0.94-2.65c-0.22-1.05-0.02-2.13-0.06-3.2c-0.05-1.07-0.44-2.25-1.4-2.71c-1.13-0.54-2.54,0.2-3.17,1.29
	c-0.63,1.09-0.67,2.4-0.7,3.66c-0.13,5.63-0.25,11.27-0.38,16.9c0.44,0.09,0.87,0.18,1.31,0.27c-0.33,1.82-0.67,3.64-1,5.47
	C321.76,370.98,322.55,369.07,323.12,367.36 M290.45,291.34c-1.21-0.29-2.02,1.21-2.32,2.43s-0.93,2.75-2.17,2.64
	c-2.79-0.23-5.66,0.87-7.57,2.92c0.51,0.28,1.02,0.56,1.52,0.83c0.34,0.69-0.64,1.41-1.39,1.2c-0.74-0.21-1.23-0.89-1.76-1.45
	c-0.53-0.56-1.33-1.06-2.04-0.75c-0.11,0.05-0.22,0.11-0.31,0.2c-0.62,0.56-0.38,1.65,0.25,2.19c0.63,0.54,1.5,0.68,2.33,0.8
	c1.56,0.23,3.12,0.45,4.68,0.68c0.5,0.07,1.05,0.13,1.45-0.17c2.38-1.79,5.47-2.61,8.42-2.22c1.77,0.23,2.85-2.44,1.68-3.79
	c-1.06-1.22-3.26-1.11-4.19,0.21c-0.9-1.33,0.23-3.06,1.3-4.26c0.43,0.46,0.37,1.29-0.12,1.68c0.47,0.21,0.97,0.43,1.48,0.37
	c0.51-0.07,1-0.55,0.88-1.05c-0.06-0.23-0.22-0.42-0.39-0.59C291.61,292.59,291.03,291.96,290.45,291.34 M268.04,285.51
	c0.28,0.82-0.3,1.82-1.15,1.98c0.07-0.82,0.13-1.64,0.2-2.45c-5.82,4.04-11.39,8.46-16.64,13.21c-0.13,1.3-0.06,2.61,0.23,3.88
	c1.08-1.09,2.74-1.57,4.24-1.24c-0.81,0.83-1.62,1.66-2.43,2.49c0.98,0.77,2.47-0.08,3.05-1.19c0.58-1.1,0.69-2.42,1.35-3.48
	c1.01-1.63,3.1-2.31,4.17-3.9c0.1-0.15,0.2-0.33,0.19-0.52c-0.05-0.7-1.14-0.45-1.68,0c-1.54,1.31-3.09,2.62-4.63,3.93
	c-0.96,0.81-2.63,1.53-3.25,0.44c3.8-2.99,7.59-5.98,11.39-8.97c1.05-0.83,2.89-1.5,3.45-0.29c-1.96,0.9-3.63,2.44-4.67,4.33
	c1.54,0.47,3.15-0.58,4.11-1.87c0.96-1.29,1.52-2.84,2.54-4.09c0.37-0.46,0.8-0.88,1.02-1.42c0.22-0.54,0.15-1.27-0.34-1.58
	C268.68,284.48,267.85,284.96,268.04,285.51 M283.8,282.32c0.43,2.59,0.86,5.18,1.29,7.78c0.12,0.71,0.24,1.46,0.03,2.15
	c-0.21,0.69-0.85,1.32-1.57,1.25c-0.13-1.93-0.17-3.86-0.1-5.79c-0.65,0.05-1.3,0.1-1.95,0.15c-0.31-1.37,1.5-2.42,1.48-3.83
	c-0.01-0.76-0.55-1.39-1.1-1.92c-1.6-1.54-3.52-2.75-5.6-3.54c1.5,1.63,3.05,3.33,3.71,5.44c1,3.22-0.25,6.65-0.97,9.95
	c-0.09,0.4-0.15,0.86,0.11,1.17c0.3,0.35,0.84,0.32,1.29,0.26c1.86-0.26,3.73-0.52,5.59-0.78c0.84-0.57,0.84-1.79,0.75-2.8
	c-0.23-2.69-0.47-5.39-1.18-8C285.36,282.94,284.58,281.86,283.8,282.32 M291.38,277.19c0.29,0.97,1.26,1.55,1.93,2.31
	c0.67,0.76,0.94,2.16,0.05,2.64c-0.36,0.19-0.15,0.74,0.1,1.06c1.2,1.56,2.48,3.06,3.83,4.49c0.31,0.33,0.38,0.81,0.44,1.26
	c0.33,2.71,0.66,5.43,0.98,8.14c0.02,0.16,0.04,0.34,0.13,0.48c0.3,0.48,1.03,0.27,1.54,0.01c1.69-0.88,3.66-2.31,3.26-4.17
	c-0.09-0.42-0.3-0.8-0.44-1.21c-0.25-0.75-0.27-1.63-0.84-2.19c-0.57-0.55-1.88-0.05-1.53,0.66c-2.21-2.42-3.94-5.29-5.06-8.37
	c-0.41-1.13-0.75-2.32-1.42-3.32C293.68,277.97,292.59,277.15,291.38,277.19 M316.38,300.39c-0.92-2.53-2-5-3.33-7.35
	c-1.09,1.23-0.49,3.15,0.16,4.67c1.29,3.04,2.53,6.11,3.39,9.29c0.67,2.49,1.11,5.04,1.31,7.61c0.15,1.97,0.23,4.11,1.5,5.63
	c1.07-2.48-1.43-5.88,0.43-7.85c0.24-0.26,0.15-0.67,0.05-1.01c-0.59-1.9-1.18-3.8-1.77-5.7
	C317.56,303.9,317.01,302.13,316.38,300.39 M311.51,308.5c0.37-1.3-0.45-2.62-1.23-3.73c-1.66-2.34-3.83-4.94-6.7-4.77
	c-1.68,0.1-3.28-0.7-4.93-1.03c-1.65-0.33-3.74,0.05-4.36,1.62c1.62,0.34,3.24,0.69,4.86,1.03c3.11,0.66,6.4,1.41,8.65,3.66
	C308.96,306.45,309.9,308.06,311.51,308.5 M255.44,288.39c0.82,0.85-0.44,2.11-1.54,2.55c-1.09,0.44-2.45,1.51-1.79,2.48
	c-2.59,0.57-4.75,2.76-5.29,5.36c4.93-4,9.86-8,14.79-11.99c0.48-0.39,0.99-0.82,1.16-1.42c0.16-0.6-0.22-1.38-0.84-1.36
	c-0.92,0.02-1.79,1.59-2.37,0.86c-0.24-0.3-0.7-0.25-1.07-0.18c-0.97,0.19-1.98,0.41-2.72,1.07
	C255.05,286.43,254.76,287.69,255.44,288.39 M236,314.19c0.69,0.3,1.54-0.17,1.86-0.86s0.23-1.49,0.03-2.22
	c-0.53-0.33-1.35,0.01-1.48,0.62c-1.01-0.94-0.81-2.6-0.28-3.88c0.54-1.28,1.34-2.52,1.31-3.9c-0.02-0.84-0.36-1.64-0.43-2.48
	c-0.07-0.84,0.24-1.82,1.03-2.09c0.79-0.27,1.06-1.45,0.47-2.03c-1.54-0.12-2.38,1.73-2.77,3.23c-0.57,2.21-1.14,4.42-1.71,6.63
	c-0.19,0.75-0.39,1.51-0.36,2.28c0.05,1.3,0.71,2.49,1.36,3.62C235.27,313.54,235.55,313.99,236,314.19 M301.36,407.02
	c-0.08-0.71-1.19-0.48-1.77-0.06c-2.17,1.6-4.34,3.19-6.52,4.79c-0.53,0.39-1.21,0.45-1.86,0.51c-3.58,0.3-7.17,0.6-10.75,0.89
	c0.05,0.94,0.9,1.69,1.81,1.94s1.88,0.1,2.81-0.05c2.4-0.38,4.81-0.76,7.21-1.14c0.66-0.1,1.21-0.54,1.74-0.96
	C296.48,410.97,298.92,409,301.36,407.02 M266.09,303.8c0.48-1.25,0.95-2.5,1.43-3.75c-2.37-0.39-4.83,1.68-4.85,4.08
	c-0.01,0.74,0.18,1.48,0.06,2.21c-0.12,0.73-0.71,1.47-1.44,1.39c0.3,0.91,1.58,1.14,2.43,0.69c0.85-0.45,1.37-1.32,1.91-2.12
	c0.54-0.8,1.2-1.61,2.14-1.83c0.63-0.15,1.29,0.01,1.94-0.07c0.64-0.07,1.35-0.53,1.31-1.17C269.4,302.69,267.54,302.9,266.09,303.8
	 M309.22,292.49c-0.14,2.37-0.73,4.72-1.74,6.87c0.42,0.52,1.23-0.05,1.59-0.62c2.34-3.72,2.71-8.59,0.97-12.62
	c-0.43-0.99-1.03-1.98-2.01-2.42c-0.98-0.44-2.38-0.05-2.65,0.99c1.29,0.21,2.61,0.8,3.28,1.92s0.38,2.85-0.81,3.38
	C308.92,289.99,309.28,291.42,309.22,292.49 M270.32,295.07c-0.07,0.79-1.33,0.9-1.84,0.29c-0.51-0.61-0.46-1.49-0.38-2.28
	c-1.39,0.34-2.01,2.34-1.06,3.4c0.86,0.96,2.41,0.92,3.61,0.43c2.65-1.09,4.37-4.09,3.97-6.93c-0.84,0.64-1.94,0.81-2.96,1.09
	c-1.02,0.27-2.11,0.74-2.57,1.69C268.63,293.71,269.26,295.16,270.32,295.07 M300.45,405.62c2.53-1.46,5.08-2.93,7.22-4.91
	c-0.37-1.04-2.01-0.5-2.65,0.39c-0.64,0.9-1.23,2.13-2.33,2.13c-2.37,0-4.7,1.41-5.79,3.52c-0.23,0.44-0.8,0.55-1.3,0.6
	c-3.06,0.33-6.12,0.67-9.18,1c0.42,0.95,1.68,1.1,2.71,1.12c1.28,0.02,2.57,0.05,3.82-0.21c1.82-0.37,3.46-1.31,5.06-2.24
	C298.82,406.56,299.63,406.09,300.45,405.62 M269.27,428.66c5.46,2.78,11.92,3.57,17.89,2.18c0.7-0.16,1.58-0.78,1.19-1.38
	c-6.44,1.3-13.25,0.66-19.33-1.81C268.53,427.61,268.83,428.43,269.27,428.66 M240.15,419.4c3.62-0.77,7.25-1.54,10.87-2.3
	c0.74-0.16,1.51-0.31,2.22-0.06c0.95,0.33,1.83,1.35,2.74,0.94c0.01-1.32-1.23-2.38-2.52-2.62c-1.29-0.25-2.62,0.12-3.89,0.48
	c-2.86,0.81-5.73,1.63-8.59,2.44C240.44,418.42,239.76,418.98,240.15,419.4 M266.19,406.91c-1.25-1.32-2.51-2.63-3.76-3.95
	c-0.37,1.21,0.42,2.45,1.26,3.39c3.12,3.51,7.53,5.86,12.18,6.48c-1.44-1.85-3.61-3.11-5.94-3.43
	C268.43,409.19,267.25,408.02,266.19,406.91 M282.34,410.55c-0.9-1.15-2.49-1.7-3.9-1.37c0.23,0.57-0.55,1.11-1.15,0.95
	c-0.6-0.16-1.01-0.68-1.48-1.08c-0.88-0.76-2.06-1.14-3.22-1.04c1.51,2.89,5.25,4.4,8.34,3.34
	C281.44,411.17,281.95,410.93,282.34,410.55 M253.62,307.45c0.22-0.63,0.61-1.3,0.38-1.92c-0.17-0.46-0.7-0.75-1.18-0.65
	c-0.16,0.98-0.96,1.7-1.7,2.37c-0.73,0.67-1.5,1.46-1.52,2.46c-0.02,0.99,1.22,1.94,1.97,1.29
	C253.04,310.97,253.14,308.85,253.62,307.45 M289.32,280.37c0.52,0.61,1.08,1.24,1.84,1.48c0.76,0.24,1.77-0.13,1.9-0.92
	c-1.94-2.46-4.65-4.29-7.66-5.16C286.71,277.31,288.01,278.84,289.32,280.37 M259.56,281.84c-0.07,0.68,0.91,1.01,1.52,0.71
	c0.62-0.29,1.02-0.91,1.58-1.28c0.56-0.37,1.23-0.49,1.89-0.6c1.64-0.28,3.27-0.56,4.91-0.84c0.36-0.13,0.35-0.7,0.06-0.96
	c-0.29-0.25-0.71-0.28-1.1-0.27C265.22,278.65,262.04,279.81,259.56,281.84 M258.01,303.94c-0.53,0.73-0.12,1.8-0.48,2.62
	c-0.28,0.62-0.92,0.96-1.44,1.39c-0.52,0.43-0.95,1.17-0.62,1.75c1.38,0.26,2.5-1.09,3.16-2.33s1.37-2.71,2.75-2.99
	C260.36,303.62,258.76,302.92,258.01,303.94 M259.97,301.1c0.03-0.52-0.08-1.04-0.32-1.5c2.73-0.79,5.97-2.17,6.23-5
	c-2.4,0.75-4.57,2.21-6.18,4.14c-0.33,0.4-0.65,0.85-0.67,1.37C259.02,300.63,259.46,301.18,259.97,301.1 M293.02,290.17
	c-0.56,0.83-0.15,1.94,0.27,2.84c0.81,1.73,1.62,3.47,2.43,5.2c0.55,0.17,1.12-0.37,1.18-0.95c0.07-0.57-0.2-1.13-0.48-1.64
	C295.42,293.74,294.28,291.92,293.02,290.17 M269.62,302.14c0.67,0.45,1.61,0.08,2.14-0.53c0.85-0.97,0.98-2.36,1.07-3.65
	c-0.91,0.58-2.02,0.78-2.87,1.44S268.73,301.54,269.62,302.14 M276.27,285.85c0.93,0.79,1.54,1.88,2.13,2.94
	c0.42-0.94,0.85-1.93,0.78-2.96c-0.07-1.03-0.84-2.09-1.87-2.11C276.28,283.7,275.48,285.19,276.27,285.85 M297.89,427.12
	c-1.01,0.35-2.01,0.7-3.02,1.05c-0.5,0.17-1.04,0.38-1.29,0.84c3.25-0.12,6.48-1.02,9.32-2.6
	C301.24,425.99,299.51,426.56,297.89,427.12 M282.1,273.83c1.81,0.36,3.61,0.71,5.42,1.07c0.76,0.15,1.53,0.3,2.3,0.19
	c-2.23-1.89-5.36-2.68-8.22-2.08C281.16,273.14,281.66,273.74,282.1,273.83 M313.11,416.06c2.34,0.29,4.68,0.58,7.02,0.87
	c-2.74-0.95-5.48-1.91-8.22-2.86c-0.59,0.01-0.79,0.9-0.41,1.36C311.88,415.89,312.52,415.99,313.11,416.06 M254.07,288.48
	c0.28-0.86-1.05-1.35-1.92-1.08c-0.83,0.26-1.62,0.84-1.86,1.68s0.29,1.89,1.15,1.98c0.72-0.66,1.45-1.33,2.17-1.99
	C253.8,288.9,253.99,288.72,254.07,288.48 M240.92,287.9c-0.76,1.03-0.32,2.72,0.85,3.25c0.45-0.44,0.91-0.88,1.25-1.41
	c0.5-0.77,0.71-1.85,0.12-2.55c-0.59-0.7-2.06-0.35-1.99,0.56 M281.49,278.11c0.51-0.45,0.04-1.28-0.46-1.74
	c-0.63-0.59-1.36-1.15-2.21-1.22c-0.86-0.08-1.82,0.54-1.81,1.4c1.03,0.49,2.05,0.98,3.08,1.48
	C280.54,278.24,281.12,278.44,281.49,278.11 M274.75,283.41c1.2-0.2,2.33-0.77,3.2-1.61c-0.7-0.47-1.44-0.95-2.28-1.08
	c-0.84-0.13-1.81,0.22-2.14,1c-0.33,0.78,0.38,1.87,1.2,1.67 M274.61,275.47c-1.1,0.28-2.2,0.56-3.3,0.84
	c0.78,1.69,3.6,1.82,4.53,0.21c0.28-0.49,0.37-1.18-0.03-1.58c-0.4-0.41-1.3-0.1-1.19,0.46 M287.48,280.3
	c-1.18-1.36-2.36-2.73-3.54-4.09c-0.58,1.02-0.44,2.4,0.33,3.29C285.04,280.39,286.39,280.72,287.48,280.3 M295.75,303.19
	c-1.99-1.55-4.98-1.68-7.1-0.3C290.97,303.42,293.39,303.52,295.75,303.19 M248.7,420.25c1.3-0.17,2.56-0.69,3.61-1.49
	c-2.6-0.27-5.29,0.54-7.3,2.2c1.23,0.26,2.56,0.01,3.6-0.69 M318.91,297.76c0-0.77-0.5-1.52-1.21-1.83
	c-0.61,1.36-0.59,2.97,0.03,4.32c0.3,0.65,1.4,0.34,1.63-0.33c0.23-0.67-0.1-1.4-0.43-2.03 M243.86,305.58
	c0.64,0.53,1.64,0.4,2.31-0.09c0.67-0.48,1.1-1.23,1.5-1.96c0.27-0.48,0.51-1.14,0.12-1.52
	C246.23,302.88,244.88,304.11,243.86,305.58 M245.38,290.34c0.36,0.36,1.02,0.36,1.38-0.01c0.29-0.3,0.35-0.74,0.4-1.14
	c-1.14,0.17-2.33,0.38-3.23,1.1c-0.9,0.72-1.34,2.14-0.64,3.05C244.36,292.67,245.13,291.56,245.38,290.34 M291.68,286.73
	c-0.56-0.76-1.49-1.22-2.43-1.23c-0.35,0.61,0.35,1.28,0.95,1.64c0.85,0.5,1.88,0.99,2.79,0.59c0.9-0.4,0.89-2.13-0.1-2.11
	C292.49,285.99,292.08,286.36,291.68,286.73 M255.19,281.33c0.53,0.69,1.64,0.42,2.36-0.06c0.83-0.55,1.51-1.3,1.99-2.18
	C257.82,278.68,255.87,279.69,255.19,281.33 M283.23,409.9c0.28,0.6,1.31,0.27,1.48-0.37c0.17-0.64-0.2-1.29-0.56-1.85
	c-0.52-0.82-1.03-1.63-1.55-2.45C282.33,406.8,282.55,408.45,283.23,409.9 M269.52,274.7c-1-0.11-2.31-0.02-2.6,0.94
	c0.56,0.8,1.71,1.14,2.62,0.76c0.91-0.38,1.48-1.42,1.31-2.39c-0.5-0.18-1.12,0.17-1.25,0.69 M303.24,297.02
	c-0.8,0.65,0.23,2.02,1.26,1.96c1.03-0.05,1.87-0.81,2.82-1.2c-1.18-0.67-2.62-0.87-3.94-0.53 M276.2,290.57
	c-0.09,0.69-0.01,1.57,0.64,1.81c1.15-1.59,0.52-4.15-1.24-5.02c-0.03,1.09,0.12,2.19,0.45,3.23 M267.17,404.34
	c-0.66-0.99-1.56-1.83-2.6-2.41c0.83,1.9,2.21,3.55,3.93,4.69c0.45,0.3,1.28,0.41,1.34-0.13c-0.89-0.71-1.78-1.42-2.67-2.13
	 M244.58,302.03c1.06-0.24,2.03-0.84,2.71-1.68c-0.45-1.08-2.09-0.46-2.98,0.31c-0.34,0.29-0.7,0.65-0.68,1.09
	c0.03,0.44,0.76,0.71,0.9,0.29 M271.16,405.89c0.07,1.27,1.9,1.4,3.14,1.12c0.66-0.15,1.42-0.38,1.65-1.02
	C274.35,405.95,272.76,405.92,271.16,405.89 M275,295.76c-0.32,0.07-0.37,0.56-0.14,0.79c0.24,0.23,0.61,0.23,0.93,0.16
	c1.21-0.26,2.14-1.46,2.09-2.69c-1.12,0.25-2.16,0.9-2.88,1.79 M326.62,418.56c0.77,0.3,1.66,0.29,2.42-0.02
	c-0.9-0.97-2.42-1.3-3.65-0.8c-0.08,0.53,0.68,0.71,1.21,0.66 M264.94,283.05c-0.88,0.26-1.41,1.33-1.1,2.19
	c1.02-0.43,1.86-1.27,2.3-2.29c-0.35-0.29-0.88-0.31-1.25-0.05 M287.76,288.35c-0.37,0.49,0.24,1.28,0.84,1.14
	c0.6-0.14,0.88-0.93,0.6-1.48s-0.94-0.82-1.55-0.78c-0.2,0.24-0.27,0.59-0.17,0.89 M296.04,289.67c-0.38-0.62-1.47,0.05-1.37,0.77
	c0.1,0.72,0.79,1.19,1.42,1.56c0.37-0.69,0.25-1.6-0.28-2.18 M309.3,420.19c0.59,0.32,1.41,0.11,1.77-0.46s0.21-1.4-0.33-1.8
	c-0.7,0.57-1.2,1.37-1.42,2.25 M255.26,305.05c-0.6,0.35-0.12,1.51,0.55,1.33c0.76-0.51,0.79-1.78,0.07-2.34
	c-0.32,0.25-0.55,0.62-0.61,1.03 M240.79,339.31c-0.26,0.4-0.52,0.8-0.78,1.2c0.33,0.72,1.56,0.75,1.92,0.04
	c-0.14-0.58-0.55-1.08-1.09-1.34 M239.57,342.4c0.29,1,1.67,1.49,2.52,0.9c-0.29-0.87-1.44-1.31-2.24-0.86 M277.05,407.41
	c0.87,0.62,2.29,0.07,2.51-0.97c-0.89-0.21-1.9,0.16-2.44,0.9 M250.48,389.64c0.03,0.64,0.87,1.2,1.32,0.74
	c-0.5-0.84-1.14-1.6-1.89-2.23c-0.29,0.51,0.04,1.25,0.61,1.38 M287.63,285.46c0.87-0.33,0.55-1.95-0.38-1.93
	c-0.43,0.62-0.23,1.58,0.41,1.99 M272.76,280.68c-0.53-0.28-1.07-0.56-1.6-0.84c-0.22,0.3-0.3,0.7-0.21,1.06
	c0.57,0.35,1.35,0.33,1.91-0.05 M249.84,284.84c-0.61,0.18-1.02,0.86-0.89,1.48c0.82,0.18,1.53-1.01,0.98-1.65 M299.45,402.01
	c-0.69,0.02-1.31,0.65-1.32,1.34c0.65,0.13,1.35-0.43,1.37-1.09 M250.44,283.32c0.15,0.47,0.97,0.49,1.13,0.02
	c-0.17-0.25-0.38-0.51-0.67-0.56c-0.3-0.05-0.63,0.3-0.45,0.54 M281.85,279.67c0.15,0.47,0.97,0.49,1.13,0.02
	c-0.16-0.47-0.98-0.46-1.13,0.02 M267.53,298.44c-0.33-0.09-0.7-0.04-1,0.14c0.19,0.28,0.45,0.59,0.79,0.58
	c0.34-0.01,0.51-0.62,0.17-0.66L267.53,298.44z"/>
</svg>
